<svg width="46" height="45" viewBox="0 0 46 45" fill="none" xmlns="http://www.w3.org/2000/svg">
<rect x="0.5" y="0.5" width="45" height="44" rx="9.5" fill="#FAFBFC" stroke="#091E42"/>
<path d="M8.16 31V15.256H13.08C13.88 15.256 14.616 15.336 15.288 15.496C15.976 15.64 16.56 15.888 17.04 16.24C17.536 16.592 17.92 17.048 18.192 17.608C18.464 18.168 18.6 18.856 18.6 19.672C18.6 20.904 18.28 21.888 17.64 22.624C17 23.36 16.136 23.864 15.048 24.136L19.056 31H16.8L13.008 24.352H10.152V31H8.16ZM10.152 22.72H12.792C14.024 22.72 14.968 22.472 15.624 21.976C16.28 21.464 16.608 20.696 16.608 19.672C16.608 18.632 16.28 17.904 15.624 17.488C14.968 17.072 14.024 16.864 12.792 16.864H10.152V22.72ZM21.6321 31V13.912H23.5761V25.48H23.6481L28.6161 19.336H30.8001L26.8881 24.016L31.3281 31H29.1681L25.7601 25.384L23.5761 27.928V31H21.6321ZM33.5149 31V19.336H35.1469L35.3149 21.448H35.3869C35.7869 20.712 36.2669 20.128 36.8269 19.696C37.4029 19.264 38.0269 19.048 38.6989 19.048C39.1629 19.048 39.5789 19.128 39.9469 19.288L39.5629 21.016C39.3709 20.952 39.1949 20.904 39.0349 20.872C38.8749 20.84 38.6749 20.824 38.4349 20.824C37.9389 20.824 37.4189 21.024 36.8749 21.424C36.3469 21.824 35.8829 22.52 35.4829 23.512V31H33.5149Z" fill="#091E42"/>
</svg>
