<svg width="64" height="34" viewBox="0 0 64 34" fill="none" xmlns="http://www.w3.org/2000/svg">
<rect x="0.5" y="0.5" width="63" height="33" rx="9.5" fill="#FAFBFC" stroke="#F51E38"/>
<path d="M20.9198 23V11.192H24.6098C25.2098 11.192 25.7618 11.252 26.2658 11.372C26.7818 11.48 27.2198 11.666 27.5798 11.93C27.9518 12.194 28.2398 12.536 28.4438 12.956C28.6478 13.376 28.7498 13.892 28.7498 14.504C28.7498 15.428 28.5098 16.166 28.0298 16.718C27.5498 17.27 26.9018 17.648 26.0858 17.852L29.0918 23H27.3998L24.5558 18.014H22.4138V23H20.9198ZM22.4138 16.79H24.3938C25.3178 16.79 26.0258 16.604 26.5178 16.232C27.0098 15.848 27.2558 15.272 27.2558 14.504C27.2558 13.724 27.0098 13.178 26.5178 12.866C26.0258 12.554 25.3178 12.398 24.3938 12.398H22.4138V16.79ZM31.0239 23V10.184H32.4819V18.86H32.5359L36.2619 14.252H37.8999L34.9659 17.762L38.2959 23H36.6759L34.1199 18.788L32.4819 20.696V23H31.0239ZM39.936 23V14.252H41.16L41.286 15.836H41.34C41.64 15.284 42 14.846 42.42 14.522C42.852 14.198 43.32 14.036 43.824 14.036C44.172 14.036 44.484 14.096 44.76 14.216L44.472 15.512C44.328 15.464 44.196 15.428 44.076 15.404C43.956 15.38 43.806 15.368 43.626 15.368C43.254 15.368 42.864 15.518 42.456 15.818C42.06 16.118 41.712 16.64 41.412 17.384V23H39.936Z" fill="#F51E38"/>
</svg>
